<svg xmlns="http://www.w3.org/2000/svg" width="112" height="112" viewBox="0 0 112 112">
  <g id="Layer_2" data-name="Layer 2" transform="translate(0.116 0.116)">
    <g id="Layer_1" data-name="Layer 1">
      <rect id="Rectangle_19" data-name="Rectangle 19" width="112" height="112" rx="22" transform="translate(-0.116 -0.116)" fill="#281e41"/>
      <path id="Path_29" data-name="Path 29" d="M215.68,288.382A3.023,3.023,0,1,1,218.7,291.4,3.023,3.023,0,0,1,215.68,288.382Z" transform="translate(-181.367 -239.952)" fill="#a939fe"/>
      <path id="Path_30" data-name="Path 30" d="M271.124,173.943a3.023,3.023,0,0,1,2.965-5.25l.119.072,11.119,6.48.181.1a3.014,3.014,0,0,1-3.023,5.21l-.151-.091-11.094-6.461Z" transform="translate(-226.855 -141.611)" fill="#a939fe"/>
      <path id="Path_31" data-name="Path 31" d="M215.68,141.092a3.023,3.023,0,1,1,3.023,3.013,3.023,3.023,0,0,1-3.023-3.013Z" transform="translate(-181.367 -116.095)" fill="#a939fe"/>
      <path id="Path_32" data-name="Path 32" d="M215.68,214.22a3.023,3.023,0,0,1,4.6-2.571l9.975,5.824a3.023,3.023,0,1,1-3.032,5.215l-.083-.049-9.878-5.772h0A3.023,3.023,0,0,1,215.68,214.22Z" transform="translate(-181.367 -177.603)" fill="#a939fe"/>
      <path id="Path_33" data-name="Path 33" d="M258.821,89.316V130.5a3.589,3.589,0,0,1-1.775,3.1l-35.923,21.478-.019.013a3.583,3.583,0,0,1-5.423-3.075v-38.1a3.576,3.576,0,0,1,1.58-2.972l.064-.041.231-.14.022-.011L251,90.689h.008l.14-.088.724-.433-.77-.45c-.03-.018-.06-.037-.094-.053l-33.721-19.7-.022-.011A3.023,3.023,0,0,1,218.7,64.28a2.962,2.962,0,0,1,1.618.477l.024.014,36.576,21.355.181.105A3.646,3.646,0,0,1,258.821,89.316Z" transform="translate(-181.367 -54.053)" fill="#a939fe"/>
    </g>
  </g>
</svg>
