<svg xmlns="http://www.w3.org/2000/svg" viewBox="0 0 702.53 702.53"><defs><style>.cls-1{fill:#281e41;}.cls-2{fill:#a939fe;}</style></defs><g id="Layer_2" data-name="Layer 2"><g id="Layer_1-2" data-name="Layer 1"><rect class="cls-1" width="702.53" height="702.53" rx="116.56"/><path class="cls-2" d="M215.68,304.41a19,19,0,1,1,19,18.94A19,19,0,0,1,215.68,304.41Z"/><path class="cls-2" d="M278.26,203.23a19,19,0,0,1,18.64-33l.75.45,69.89,40.73,1.14.66a19,19,0,0,1-10,35,19.18,19.18,0,0,1-9-2.25l-.95-.57L279,203.64Z"/><path class="cls-2" d="M215.68,157.12a19,19,0,1,1,19,18.94A19,19,0,0,1,215.68,157.12Z"/><path class="cls-2" d="M215.68,230.16A19,19,0,0,1,244.6,214l62.7,36.61a19,19,0,1,1-19.06,32.78l-.52-.31L225.63,246.8h0A19,19,0,0,1,215.68,230.16Z"/><path class="cls-2" d="M486.85,221.65l0,258.85A22.56,22.56,0,0,1,475.69,500L249.89,635l-.12.08a22.52,22.52,0,0,1-34.09-19.33V376.29a22.48,22.48,0,0,1,9.93-18.68l.4-.26,1.45-.88.14-.07L437.71,230.28l.05,0,.88-.55,4.55-2.72-4.84-2.83c-.19-.11-.38-.23-.59-.33L225.8,100l-.14-.07a19,19,0,0,1,9-35.65,18.62,18.62,0,0,1,10.17,3l.15.09,229.9,134.23,1.14.66A22.92,22.92,0,0,1,486.85,221.65Z"/></g></g></svg>