<svg xmlns="http://www.w3.org/2000/svg" width="146.01" height="51.521" viewBox="0 0 146.01 51.521">
  <g id="Layer_2" data-name="Layer 2" transform="translate(0.009 0)">
    <g id="Layer_1" data-name="Layer 1">
      <path id="Path_1" data-name="Path 1" d="M0,21.55a1.7,1.7,0,1,1,1.7,1.7A1.7,1.7,0,0,1,0,21.55Z" fill="#a939fe"/>
      <path id="Path_2" data-name="Path 2" d="M5.62,12.47A1.7,1.7,0,0,1,6.47,9.3a1.64,1.64,0,0,1,.82.21h.07l6.27,3.65.1.06a1.7,1.7,0,0,1-.9,3.14,1.68,1.68,0,0,1-.81-.2l-.09-.05L5.68,12.5Z" fill="#a939fe"/>
      <path id="Path_3" data-name="Path 3" d="M0,8.33A1.7,1.7,0,1,1,1.7,10,1.7,1.7,0,0,1,0,8.33Z" fill="#a939fe"/>
      <path id="Path_4" data-name="Path 4" d="M0,14.88a1.7,1.7,0,0,1,1.7-1.7,1.65,1.65,0,0,1,.89.25l5.63,3.29a1.7,1.7,0,0,1-1.71,2.94h0L.89,16.38h0A1.71,1.71,0,0,1,0,14.88Z" fill="#a939fe"/>
      <path id="Path_5" data-name="Path 5" d="M24.33,14.12V37.35a2,2,0,0,1-1,1.74L3.07,51.21h0A2,2,0,0,1,0,49.48V28a2,2,0,0,1,.89-1.68h0l.13-.08h0L19.92,14.9h0l.07-.05.41-.24-.4-.26h-.05L.91,3.21h0A1.7,1.7,0,0,1,1.7,0a1.65,1.65,0,0,1,.91.27h0L23.25,12.32l.11.06a2,2,0,0,1,.97,1.74Z" fill="#a939fe"/>
      <path id="Path_6" data-name="Path 6" d="M48.83,25a4,4,0,0,0-1.34-.7l-.2-.05a3.09,3.09,0,0,0,.6-.31A3.15,3.15,0,0,0,49,22.7a3.84,3.84,0,0,0,.39-1.7,3.52,3.52,0,0,0-1-2.65,3.83,3.83,0,0,0-2.76-1H40.07a.59.59,0,0,0-.45.19.62.62,0,0,0-.18.44V31.47a.64.64,0,0,0,.18.44.59.59,0,0,0,.45.19h5.64a6.32,6.32,0,0,0,1.65-.22,4.06,4.06,0,0,0,1.42-.72,3.34,3.34,0,0,0,1-1.28A4.32,4.32,0,0,0,50.14,28a4,4,0,0,0-.35-1.75A3.68,3.68,0,0,0,48.83,25Zm-1.47-5.72a2.37,2.37,0,0,1,.68,1.8,2.72,2.72,0,0,1-.74,2.06,2.67,2.67,0,0,1-1.84.71H40.78V18.66h4.66a2.63,2.63,0,0,1,1.92.66Zm.54,10.86a3.71,3.71,0,0,1-2.27.68H40.78V25.17h4.83a4.74,4.74,0,0,1,1.57.26,2.44,2.44,0,0,1,1.18.89A2.91,2.91,0,0,1,48.8,28a2.56,2.56,0,0,1-.9,2.18Z"/>
      <path id="Path_7" data-name="Path 7" d="M61.5,21.37a.62.62,0,0,0-.48.19.67.67,0,0,0-.17.46v1.3a4.14,4.14,0,0,0-.8-1A4.47,4.47,0,0,0,57,21.12a4.55,4.55,0,0,0-2.49.71,5.09,5.09,0,0,0-1.77,2,6.25,6.25,0,0,0-.65,2.89,6.48,6.48,0,0,0,.64,2.88,5.09,5.09,0,0,0,1.77,2,4.5,4.5,0,0,0,2.53.74A4.129,4.129,0,0,0,58.669,32,4.91,4.91,0,0,0,60,31.14a4.32,4.32,0,0,0,.84-1v1.37a.67.67,0,0,0,.17.44.65.65,0,0,0,1.11-.44V22a.63.63,0,0,0-.18-.46.58.58,0,0,0-.44-.17Zm-2.4,9.18a3.41,3.41,0,0,1-2,.58,3.46,3.46,0,0,1-2-.58A3.86,3.86,0,0,1,53.79,29a5.29,5.29,0,0,1-.48-2.28,5.15,5.15,0,0,1,.49-2.27,3.87,3.87,0,0,1,1.37-1.54,3.56,3.56,0,0,1,2-.56,3.48,3.48,0,0,1,2,.58,4,4,0,0,1,1.36,1.58A4.88,4.88,0,0,1,61,26.68,5.15,5.15,0,0,1,60.46,29a3.86,3.86,0,0,1-1.36,1.55Z"/>
      <path id="Path_8" data-name="Path 8" d="M66.18,16.56a.65.65,0,0,0-.63.63V31.47a.64.64,0,0,0,.18.44.6.6,0,0,0,.45.19.63.63,0,0,0,.44-.19.65.65,0,0,0,.19-.44V17.19a.64.64,0,0,0-.18-.44A.62.62,0,0,0,66.18,16.56Z"/>
      <path id="Path_9" data-name="Path 9" d="M78,29.7a.69.69,0,0,0-.53.21,2.64,2.64,0,0,1-.58.42,3.93,3.93,0,0,1-.73.3,4.58,4.58,0,0,1-1.16.12,3.66,3.66,0,0,1-2-.54,3.9,3.9,0,0,1-1.35-1.47,4.51,4.51,0,0,1-.48-2.1,4.4,4.4,0,0,1,.5-2.1A3.66,3.66,0,0,1,73,23.07a3.79,3.79,0,0,1,2-.55,5.23,5.23,0,0,1,1,.1,3.16,3.16,0,0,1,.74.22,2.28,2.28,0,0,1,.43.3,1.75,1.75,0,0,0,.33.28.93.93,0,0,0,.47.11.59.59,0,0,0,.52-.25.93.93,0,0,0,.18-.55,1.15,1.15,0,0,0-.51-.9,3.91,3.91,0,0,0-1.36-.63,7.68,7.68,0,0,0-1.93-.2,5.22,5.22,0,0,0-2.84.76,5.3,5.3,0,0,0-1.9,2,6.12,6.12,0,0,0-.68,2.88,6.23,6.23,0,0,0,.66,2.88,5,5,0,0,0,1.86,2,5.15,5.15,0,0,0,2.79.75,6.68,6.68,0,0,0,2-.29,4.41,4.41,0,0,0,1.41-.7,1.13,1.13,0,0,0,.53-.82.87.87,0,0,0-.19-.57A.7.7,0,0,0,78,29.7Z"/>
      <path id="Path_10" data-name="Path 10" d="M88.48,21.71a5.57,5.57,0,0,0-5.55,0,5.43,5.43,0,0,0-2,2,6.28,6.28,0,0,0,0,5.84,5.441,5.441,0,0,0,9.49,0,6.36,6.36,0,0,0,0-5.84,5.35,5.35,0,0,0-1.94-2ZM89,28.76a3.93,3.93,0,0,1-1.34,1.46,3.72,3.72,0,0,1-3.83,0,3.82,3.82,0,0,1-1.36-1.46,4.85,4.85,0,0,1,0-4.25,3.79,3.79,0,0,1,1.36-1.45,3.67,3.67,0,0,1,3.83,0A3.9,3.9,0,0,1,89,24.51a4.85,4.85,0,0,1,0,4.25Z"/>
      <path id="Path_11" data-name="Path 11" d="M101.21,21.56A3.83,3.83,0,0,0,99,21a4.22,4.22,0,0,0-1.45.26,4.66,4.66,0,0,0-1.25.71,4.23,4.23,0,0,0-1,1l-.06.1V22.1a.85.85,0,0,0-.23-.61.86.86,0,0,0-1.21,0,.82.82,0,0,0-.24.61v9.14a.83.83,0,0,0,.24.6.82.82,0,0,0,1.2,0,.83.83,0,0,0,.24-.6V25.4a2.5,2.5,0,0,1,.45-1.4,3.19,3.19,0,0,1,1.17-1,3.4,3.4,0,0,1,1.62-.39,2.62,2.62,0,0,1,1.51.39,2.14,2.14,0,0,1,.81,1,4.2,4.2,0,0,1,.2,1.4v5.84a.86.86,0,0,0,.23.6.845.845,0,0,0,1.45-.6V25.36a6.73,6.73,0,0,0-.35-2.23,3.22,3.22,0,0,0-1.12-1.57Z"/>
      <path id="Path_12" data-name="Path 12" d="M113.47,21.56a3.83,3.83,0,0,0-2.25-.59,4.18,4.18,0,0,0-1.45.26,4.87,4.87,0,0,0-1.26.71,4.4,4.4,0,0,0-.94,1l-.06.1V22.1a.82.82,0,0,0-.24-.61.76.76,0,0,0-.6-.25.79.79,0,0,0-.6.25.82.82,0,0,0-.24.61v9.14a.83.83,0,0,0,.24.6.81.81,0,0,0,1.19,0,.84.84,0,0,0,.25-.6V25.4A2.5,2.5,0,0,1,108,24a3.19,3.19,0,0,1,1.17-1,3.4,3.4,0,0,1,1.62-.39,2.62,2.62,0,0,1,1.51.39,2.14,2.14,0,0,1,.81,1,4.2,4.2,0,0,1,.24,1.45v5.84a.86.86,0,0,0,.23.6.834.834,0,0,0,1.21,0,.83.83,0,0,0,.24-.6V25.36a6.73,6.73,0,0,0-.35-2.23,3.22,3.22,0,0,0-1.21-1.57Z"/>
      <path id="Path_13" data-name="Path 13" d="M125.94,22.38a4.79,4.79,0,0,0-1.59-1.05,5,5,0,0,0-1.88-.36,4.86,4.86,0,0,0-2.47.68,5.2,5.2,0,0,0-1.88,2,6.19,6.19,0,0,0-.73,3.11,5.89,5.89,0,0,0,.7,2.89,5.08,5.08,0,0,0,2,2,5.82,5.82,0,0,0,2.94.72,4.93,4.93,0,0,0,2.14-.49,5.06,5.06,0,0,0,1.59-1.13.84.84,0,0,0,.36-.65.67.67,0,0,0-.21-.5.72.72,0,0,0-.53-.21,1,1,0,0,0-.52.18,4.37,4.37,0,0,1-.67.58,3.59,3.59,0,0,1-.94.47,3.74,3.74,0,0,1-1.29.19,3.86,3.86,0,0,1-2-.53,3.8,3.8,0,0,1-1.38-1.46,4.5,4.5,0,0,1-.48-1.83h7.61a.87.87,0,0,0,.59-.22.81.81,0,0,0,.27-.55,5.6,5.6,0,0,0-.44-2.15,5.35,5.35,0,0,0-1.19-1.69Zm-5.83,1.11a3.14,3.14,0,0,1,1.11-.71,3.42,3.42,0,0,1,3.93,1.06,2.66,2.66,0,0,1,.57,1.48v.16h-6.6a4.84,4.84,0,0,1,.2-.73,3.44,3.44,0,0,1,.79-1.26Z"/>
      <path id="Path_14" data-name="Path 14" d="M137.75,29.7a.69.69,0,0,0-.53.21,2.64,2.64,0,0,1-.58.42,3.77,3.77,0,0,1-.74.3,4.45,4.45,0,0,1-1.15.12,3.64,3.64,0,0,1-2-.54,3.82,3.82,0,0,1-1.35-1.47,4.51,4.51,0,0,1-.48-2.1,4.4,4.4,0,0,1,.49-2.1,3.78,3.78,0,0,1,3.39-2,5.32,5.32,0,0,1,1,.1,3.06,3.06,0,0,1,.73.22,2,2,0,0,1,.43.3,2.2,2.2,0,0,0,.34.28.93.93,0,0,0,.47.11.6.6,0,0,0,.52-.25,1,1,0,0,0,.17-.55,1.14,1.14,0,0,0-.5-.9,4,4,0,0,0-1.36-.63,7.7,7.7,0,0,0-1.94-.23,5.21,5.21,0,0,0-2.83.76,5.3,5.3,0,0,0-1.9,2,6.12,6.12,0,0,0-.68,2.88,6.23,6.23,0,0,0,.66,2.88,5,5,0,0,0,1.86,2,5.15,5.15,0,0,0,2.79.75,6.68,6.68,0,0,0,2-.29,4.41,4.41,0,0,0,1.41-.7,1.13,1.13,0,0,0,.53-.82.93.93,0,0,0-.19-.57.72.72,0,0,0-.56-.18Z"/>
      <path id="Path_15" data-name="Path 15" d="M145.22,22.86a.75.75,0,0,0,.56-.22.73.73,0,0,0,.22-.54.76.76,0,0,0-.22-.56.72.72,0,0,0-.56-.23h-1.91v-2a.86.86,0,0,0-.23-.61.78.78,0,0,0-.59-.25.84.84,0,0,0-.6.25.85.85,0,0,0-.26.61v2h-1.34a.81.81,0,0,0-.56.22.71.71,0,0,0-.24.55.74.74,0,0,0,.24.55.82.82,0,0,0,.56.23h1.34v6.65a3.19,3.19,0,0,0,.29,1.5,1.77,1.77,0,0,0,.7.77,2,2,0,0,0,.85.27c.29,0,.53.05.72.05a1.84,1.84,0,0,0,1-.27.73.73,0,0,0,.26-1.15.52.52,0,0,0-.38-.2.84.84,0,0,0-.37.07.87.87,0,0,1-.37.08,1.17,1.17,0,0,1-.47-.1.8.8,0,0,1-.39-.34,1.52,1.52,0,0,1-.15-.76V22.86Z"/>
      <path id="Path_16" data-name="Path 16" d="M114.3,37.51a.249.249,0,0,0-.222.125l-2.769,3.724-2.769-3.724a.249.249,0,0,0-.222-.125.291.291,0,0,0-.166.069.221.221,0,0,0-.1.18v.166l2.893,3.959v4.278a.249.249,0,0,0,0,.166.235.235,0,0,0,.194.083.172.172,0,0,0,.194-.249V41.829l2.88-3.9v-.083a.18.18,0,0,0,0-.083.291.291,0,0,0,0-.152A.194.194,0,0,0,114.3,37.51Z" transform="translate(-14.501)"/>
      <path id="Path_17" data-name="Path 17" d="M118.455,42.383a.249.249,0,0,0,.18-.083.291.291,0,0,0,.069-.18,3.544,3.544,0,0,0-.263-1.288,2.894,2.894,0,0,0-.651-.9,2.575,2.575,0,0,0-.9-.526,3.322,3.322,0,0,0-1.038-.166,2.52,2.52,0,0,0-1.384.4,3.018,3.018,0,0,0-1.066,1.135,3.863,3.863,0,0,0-.4,1.814,3.447,3.447,0,0,0,.415,1.731,2.921,2.921,0,0,0,1.135,1.149,3.489,3.489,0,0,0,1.675.4,2.534,2.534,0,0,0,1.384-.374,3.974,3.974,0,0,0,1.011-.886.291.291,0,0,0,0-.152.249.249,0,0,0,0-.166.222.222,0,0,0-.152,0,.263.263,0,0,0-.208.125,2.879,2.879,0,0,1-.5.512,2.533,2.533,0,0,1-.678.388,2.3,2.3,0,0,1-.817.138,2.769,2.769,0,0,1-1.509-.388,2.547,2.547,0,0,1-.914-1.038,3.2,3.2,0,0,1-.318-1.384s0-.111,0-.166ZM114.3,40.431a2.243,2.243,0,0,1,.761-.512,2.021,2.021,0,0,1,.8-.18,2.589,2.589,0,0,1,1.052.235,2.3,2.3,0,0,1,.858.692,2.021,2.021,0,0,1,.429,1.121V41.9h-4.652a4.151,4.151,0,0,1,.166-.6,2.769,2.769,0,0,1,.568-.872Z" transform="translate(-12.602 0.665)"/>
      <path id="Path_18" data-name="Path 18" d="M122.487,39.559a2.353,2.353,0,0,0-1.3-.318,2.52,2.52,0,0,0-.941.18,3.074,3.074,0,0,0-.872.512,2.866,2.866,0,0,0-.554.609V39.7a.235.235,0,0,0-.069-.18.221.221,0,0,0-.18-.083.249.249,0,0,0-.18.083.291.291,0,0,0-.069.18v5.8a.208.208,0,0,0,.069.166.221.221,0,0,0,.18.083.26.26,0,0,0,.249-.249V41.677a1.606,1.606,0,0,1,.346-.983,2.339,2.339,0,0,1,.886-.706,2.367,2.367,0,0,1,1.08-.277,1.883,1.883,0,0,1,1.052.277,1.468,1.468,0,0,1,.581.706,2.769,2.769,0,0,1,.18.983V45.5a.208.208,0,0,0,0,.166.221.221,0,0,0,.18.083.169.169,0,0,0,.18-.249V41.677a2.769,2.769,0,0,0-.235-1.2,1.814,1.814,0,0,0-.581-.914Z" transform="translate(-10.556 0.664)"/>
      <path id="Path_19" data-name="Path 19" d="M123.794,39.24a.235.235,0,0,0-.249.249V45.5a.208.208,0,0,0,0,.166.221.221,0,0,0,.18.083.249.249,0,0,0,.18-.083.208.208,0,0,0,.069-.166V39.489a.256.256,0,0,0-.18-.249Z" transform="translate(-8.555 0.665)"/>
      <path id="Path_20" data-name="Path 20" d="M123.857,38a.5.5,0,0,0-.332.111.4.4,0,0,0-.125.291v.111a.4.4,0,0,0,.125.291.471.471,0,0,0,.318.111.429.429,0,0,0,.3-.111.4.4,0,0,0,.125-.291V38.4a.4.4,0,0,0-.415-.4Z" transform="translate(-8.604 0.188)"/>
      <path id="Path_21" data-name="Path 21" d="M134.016,37.965a.208.208,0,0,0,.083-.18.194.194,0,0,0-.083-.166.291.291,0,0,0-.18-.069H127.7a.291.291,0,0,0-.18.069.194.194,0,0,0-.083.166.249.249,0,0,0,.083.18.291.291,0,0,0,.18,0h2.769v8.113a.26.26,0,0,0,.263.249.291.291,0,0,0,.249-.249V38.035h2.769A.291.291,0,0,0,134.016,37.965Z" transform="translate(-7.051 0.015)"/>
      <path id="Path_22" data-name="Path 22" d="M137.678,39.434a.221.221,0,0,0-.18.083.291.291,0,0,0,0,.18V40.8a2.548,2.548,0,0,0-.568-.817,2.422,2.422,0,0,0-.831-.554,2.861,2.861,0,0,0-2.52.222,3.046,3.046,0,0,0-1.052,1.163,3.586,3.586,0,0,0-.388,1.7,3.752,3.752,0,0,0,.374,1.7,3.087,3.087,0,0,0,1.052,1.2,2.686,2.686,0,0,0,1.509.443,2.644,2.644,0,0,0,1.869-.761,2.506,2.506,0,0,0,.554-.761V45.5a.249.249,0,0,0,0,.166.222.222,0,0,0,.18.083.249.249,0,0,0,.18-.083.222.222,0,0,0,.083-.166V39.7a.291.291,0,0,0-.069-.18.249.249,0,0,0-.194-.083Zm-.512,4.555a2.437,2.437,0,0,1-.872,1.024,2.215,2.215,0,0,1-1.26.374,2.257,2.257,0,0,1-1.274-.374,2.658,2.658,0,0,1-.872-1.024,3.309,3.309,0,0,1-.3-1.467,3.115,3.115,0,0,1,.318-1.384,2.533,2.533,0,0,1,.872-1,2.312,2.312,0,0,1,1.26-.36,2.215,2.215,0,0,1,1.26.374,2.575,2.575,0,0,1,.872,1.011,3.225,3.225,0,0,1,.318,1.384,3.309,3.309,0,0,1-.318,1.44Z" transform="translate(-5.244 0.665)"/>
      <path id="Path_23" data-name="Path 23" d="M141.083,39.27H140.7a2.174,2.174,0,0,0-1.094.263,3.059,3.059,0,0,0-.8.72,3.114,3.114,0,0,0-.443.817V39.686a.291.291,0,0,0-.069-.18.249.249,0,0,0-.194-.083.194.194,0,0,0-.166.083.249.249,0,0,0-.083.18v5.8a.249.249,0,0,0,0,.166.221.221,0,0,0,.18.083.249.249,0,0,0,.18-.083.222.222,0,0,0,.083-.166v-3.17a2.367,2.367,0,0,1,.18-.9,3.433,3.433,0,0,1,.512-.872,3.087,3.087,0,0,1,.72-.637,1.578,1.578,0,0,1,.789-.235.692.692,0,0,1,.318,0,.332.332,0,0,0,.18,0,.194.194,0,0,0,.166-.083.364.364,0,0,0-.069-.318Z" transform="translate(-3.056 0.676)"/>
      <path id="Path_24" data-name="Path 24" d="M145.4,39.246h-3.876a.18.18,0,0,0-.166,0,.194.194,0,0,0-.083.166.235.235,0,0,0,.083.166.18.18,0,0,0,.166,0h3.42l-4,5.621h0a.207.207,0,0,0,0,.1.235.235,0,0,0,0,.152.208.208,0,0,0,.194.1h4.153a.263.263,0,0,0,.18,0,.235.235,0,0,0,.083-.166.194.194,0,0,0-.083-.166.221.221,0,0,0-.18-.083h-3.71l4-5.538a.125.125,0,0,0,0-.083.263.263,0,0,0,0-.1.429.429,0,0,0-.083-.18.249.249,0,0,0-.1.014Z" transform="translate(-1.864 0.659)"/>
      <path id="Path_25" data-name="Path 25" d="M145.59,44.029a.166.166,0,0,0,.18-.194v-5.9a.775.775,0,0,0,0-.277.249.249,0,0,0-.415,0,.553.553,0,0,0,0,.277v5.9C145.41,43.96,145.466,44.029,145.59,44.029Z" transform="translate(-0.17 0.015)"/>
      <path id="Path_26" data-name="Path 26" d="M145.89,43.271a.318.318,0,0,0-.263-.111h0a.3.3,0,0,0-.249.111.387.387,0,0,0-.1.291v.291a.429.429,0,0,0,.1.277.3.3,0,0,0,.249.111h0a.318.318,0,0,0,.263-.111.5.5,0,0,0,.083-.277v-.291A.457.457,0,0,0,145.89,43.271Z" transform="translate(-0.193 2.172)"/>
    </g>
  </g>
</svg>
