<svg xmlns="http://www.w3.org/2000/svg" xmlns:xlink="http://www.w3.org/1999/xlink" width="175" height="125" viewBox="0 0 175 125">
  <defs>
    <clipPath id="clip-path">
      <rect width="175" height="125" fill="none"/>
    </clipPath>
  </defs>
  <g id="Repeat_Grid_1" data-name="Repeat Grid 1" clip-path="url(#clip-path)">
    <g transform="translate(-146 -959)">
      <path id="Polygon_1" data-name="Polygon 1" d="M9,0l9,16H0Z" transform="translate(146 959)" fill="#fff"/>
    </g>
    <g transform="translate(-108 -959)">
      <path id="Polygon_1-2" data-name="Polygon 1" d="M9,0l9,16H0Z" transform="translate(146 959)" fill="#fff"/>
    </g>
    <g transform="translate(-70 -959)">
      <path id="Polygon_1-3" data-name="Polygon 1" d="M9,0l9,16H0Z" transform="translate(146 959)" fill="#fff"/>
    </g>
    <g transform="translate(-32 -959)">
      <path id="Polygon_1-4" data-name="Polygon 1" d="M9,0l9,16H0Z" transform="translate(146 959)" fill="#fff"/>
    </g>
    <g transform="translate(6 -959)">
      <path id="Polygon_1-5" data-name="Polygon 1" d="M9,0l9,16H0Z" transform="translate(146 959)" fill="#fff"/>
    </g>
    <g transform="translate(-146 -923)">
      <path id="Polygon_1-6" data-name="Polygon 1" d="M9,0l9,16H0Z" transform="translate(146 959)" fill="#fff"/>
    </g>
    <g transform="translate(-108 -923)">
      <path id="Polygon_1-7" data-name="Polygon 1" d="M9,0l9,16H0Z" transform="translate(146 959)" fill="#fff"/>
    </g>
    <g transform="translate(-70 -923)">
      <path id="Polygon_1-8" data-name="Polygon 1" d="M9,0l9,16H0Z" transform="translate(146 959)" fill="#fff"/>
    </g>
    <g transform="translate(-32 -923)">
      <path id="Polygon_1-9" data-name="Polygon 1" d="M9,0l9,16H0Z" transform="translate(146 959)" fill="#fff"/>
    </g>
    <g transform="translate(6 -923)">
      <path id="Polygon_1-10" data-name="Polygon 1" d="M9,0l9,16H0Z" transform="translate(146 959)" fill="#fff"/>
    </g>
    <g transform="translate(-146 -887)">
      <path id="Polygon_1-11" data-name="Polygon 1" d="M9,0l9,16H0Z" transform="translate(146 959)" fill="#fff"/>
    </g>
    <g transform="translate(-108 -887)">
      <path id="Polygon_1-12" data-name="Polygon 1" d="M9,0l9,16H0Z" transform="translate(146 959)" fill="#fff"/>
    </g>
    <g transform="translate(-70 -887)">
      <path id="Polygon_1-13" data-name="Polygon 1" d="M9,0l9,16H0Z" transform="translate(146 959)" fill="#fff"/>
    </g>
    <g transform="translate(-32 -887)">
      <path id="Polygon_1-14" data-name="Polygon 1" d="M9,0l9,16H0Z" transform="translate(146 959)" fill="#fff"/>
    </g>
    <g transform="translate(6 -887)">
      <path id="Polygon_1-15" data-name="Polygon 1" d="M9,0l9,16H0Z" transform="translate(146 959)" fill="#fff"/>
    </g>
    <g transform="translate(-146 -851)">
      <path id="Polygon_1-16" data-name="Polygon 1" d="M9,0l9,16H0Z" transform="translate(146 959)" fill="#fff"/>
    </g>
    <g transform="translate(-108 -851)">
      <path id="Polygon_1-17" data-name="Polygon 1" d="M9,0l9,16H0Z" transform="translate(146 959)" fill="#fff"/>
    </g>
    <g transform="translate(-70 -851)">
      <path id="Polygon_1-18" data-name="Polygon 1" d="M9,0l9,16H0Z" transform="translate(146 959)" fill="#fff"/>
    </g>
    <g transform="translate(-32 -851)">
      <path id="Polygon_1-19" data-name="Polygon 1" d="M9,0l9,16H0Z" transform="translate(146 959)" fill="#fff"/>
    </g>
    <g transform="translate(6 -851)">
      <path id="Polygon_1-20" data-name="Polygon 1" d="M9,0l9,16H0Z" transform="translate(146 959)" fill="#fff"/>
    </g>
  </g>
</svg>
