<svg xmlns="http://www.w3.org/2000/svg" xmlns:xlink="http://www.w3.org/1999/xlink" width="445" height="370" viewBox="0 0 445 370">
  <defs>
    <filter id="Rectangle_5" x="27" y="0" width="418" height="370" filterUnits="userSpaceOnUse">
      <feOffset dy="3" input="SourceAlpha"/>
      <feGaussianBlur stdDeviation="3" result="blur"/>
      <feFlood flood-opacity="0.161"/>
      <feComposite operator="in" in2="blur"/>
      <feComposite in="SourceGraphic"/>
    </filter>
  </defs>
  <g id="Group_5" data-name="Group 5" transform="translate(-1050 -305)">
    <g transform="matrix(1, 0, 0, 1, 1050, 305)" filter="url(#Rectangle_5)">
      <rect id="Rectangle_5-2" data-name="Rectangle 5" width="400" height="352" rx="38" transform="translate(36 6)" fill="#fff"/>
    </g>
    <circle id="Ellipse_2" data-name="Ellipse 2" cx="36" cy="36" r="36" transform="translate(1050 442)" fill="#a939fe"/>
    <circle id="Ellipse_3" data-name="Ellipse 3" cx="36" cy="36" r="36" transform="translate(1050 534)" fill="#a939fe"/>
    <g id="Group_3" data-name="Group 3">
      <circle id="Ellipse_1" data-name="Ellipse 1" cx="36" cy="36" r="36" transform="translate(1050 350)" fill="#a939fe"/>
      <g id="Group_1" data-name="Group 1">
        <line id="Line_1" data-name="Line 1" y2="30" transform="translate(1086 371)" fill="none" stroke="#fff" stroke-width="5"/>
        <line id="Line_2" data-name="Line 2" y2="30" transform="translate(1101 386) rotate(90)" fill="none" stroke="#fff" stroke-width="5"/>
      </g>
    </g>
    <g id="Group_2" data-name="Group 2" transform="translate(591.025 -562.861) rotate(45)">
      <line id="Line_1-2" data-name="Line 1" y2="30" transform="translate(1086 371)" fill="none" stroke="#fff" stroke-width="5"/>
      <line id="Line_2-2" data-name="Line 2" y2="30" transform="translate(1101 386) rotate(90)" fill="none" stroke="#fff" stroke-width="5"/>
    </g>
    <line id="Line_1-3" data-name="Line 1" y2="5" transform="translate(1086 579)" fill="none" stroke="#fff" stroke-width="5"/>
    <line id="Line_3" data-name="Line 3" y2="5" transform="translate(1086 556)" fill="none" stroke="#fff" stroke-width="5"/>
    <line id="Line_2-3" data-name="Line 2" y2="30" transform="translate(1101 570) rotate(90)" fill="none" stroke="#fff" stroke-width="5"/>
    <rect id="Rectangle_6" data-name="Rectangle 6" width="259" height="11" rx="5.5" transform="translate(1159 371)" fill="rgba(225,56,68,0.34)"/>
    <rect id="Rectangle_10" data-name="Rectangle 10" width="259" height="11" rx="5.5" transform="translate(1159 463)" fill="rgba(56,112,225,0.34)"/>
    <rect id="Rectangle_14" data-name="Rectangle 14" width="259" height="11" rx="5.5" transform="translate(1159 555)" fill="rgba(225,191,56,0.34)"/>
    <rect id="Rectangle_8" data-name="Rectangle 8" width="15" height="11" rx="5.5" transform="translate(1403 386)" fill="rgba(225,56,68,0.34)"/>
    <rect id="Rectangle_13" data-name="Rectangle 13" width="15" height="11" rx="5.5" transform="translate(1403 478)" fill="rgba(56,112,225,0.34)"/>
    <rect id="Rectangle_17" data-name="Rectangle 17" width="15" height="11" rx="5.5" transform="translate(1403 570)" fill="rgba(225,191,56,0.34)"/>
    <rect id="Rectangle_9" data-name="Rectangle 9" width="15" height="11" rx="5.5" transform="translate(1385 386)" fill="rgba(225,56,68,0.34)"/>
    <rect id="Rectangle_12" data-name="Rectangle 12" width="15" height="11" rx="5.5" transform="translate(1385 478)" fill="rgba(56,112,225,0.34)"/>
    <rect id="Rectangle_16" data-name="Rectangle 16" width="15" height="11" rx="5.5" transform="translate(1385 570)" fill="rgba(225,191,56,0.34)"/>
    <rect id="Rectangle_7" data-name="Rectangle 7" width="62" height="11" rx="5.5" transform="translate(1159 386)" fill="rgba(225,56,68,0.34)"/>
    <rect id="Rectangle_11" data-name="Rectangle 11" width="62" height="11" rx="5.5" transform="translate(1159 478)" fill="rgba(56,112,225,0.34)"/>
    <rect id="Rectangle_15" data-name="Rectangle 15" width="62" height="11" rx="5.5" transform="translate(1159 570)" fill="rgba(225,191,56,0.34)"/>
  </g>
</svg>
