<svg id="Icon_ionic-ios-videocam" data-name="Icon ionic-ios-videocam" xmlns="http://www.w3.org/2000/svg" width="36.289" height="20.737" viewBox="0 0 36.289 20.737">
  <path id="Path_27" data-name="Path 27" d="M32.75,10.8a1.384,1.384,0,0,0-.753.219L24.99,15.441a.693.693,0,0,0-.324.583v6.156a.693.693,0,0,0,.324.583L32,27.187a1.456,1.456,0,0,0,.753.219h1.685a.69.69,0,0,0,.7-.689V11.489a.7.7,0,0,0-.7-.689Z" transform="translate(1.158 -8.726)"/>
  <path id="Path_28" data-name="Path 28" d="M21.812,29.737H6.422A4.185,4.185,0,0,1,2.25,25.573V13.164A4.178,4.178,0,0,1,6.414,9H21.8a4.178,4.178,0,0,1,4.164,4.164v12.4A4.167,4.167,0,0,1,21.812,29.737Z" transform="translate(-2.25 -9)"/>
</svg>
