<svg xmlns="http://www.w3.org/2000/svg" viewBox="0 0 146 51.5"><defs><style>.cls-1{fill:#a939fe;}</style></defs><g id="Layer_2" data-name="Layer 2"><g id="Layer_1-2" data-name="Layer 1"><path class="cls-1" d="M0,21.55a1.7,1.7,0,1,1,1.7,1.7A1.71,1.71,0,0,1,0,21.55Z"/><path class="cls-1" d="M5.62,12.47A1.7,1.7,0,0,1,6.47,9.3a1.64,1.64,0,0,1,.82.21l.07,0,6.27,3.65.1.06a1.7,1.7,0,0,1-.9,3.14,1.68,1.68,0,0,1-.81-.2l-.09-.05L5.68,12.5Z"/><path class="cls-1" d="M0,8.33A1.7,1.7,0,1,1,1.7,10,1.7,1.7,0,0,1,0,8.33Z"/><path class="cls-1" d="M0,14.88a1.7,1.7,0,0,1,1.7-1.7,1.65,1.65,0,0,1,.89.25l5.63,3.29a1.7,1.7,0,0,1-1.71,2.94l0,0L.89,16.38h0A1.71,1.71,0,0,1,0,14.88Z"/><path class="cls-1" d="M24.33,14.12V37.35a2,2,0,0,1-1,1.74L3.07,51.21h0A2,2,0,0,1,0,49.48V28a2,2,0,0,1,.89-1.68l0,0,.13-.08h0L19.92,14.9h0l.07-.05.41-.24L20,14.35l-.05,0L.91,3.21h0A1.7,1.7,0,0,1,1.7,0a1.65,1.65,0,0,1,.91.27h0L23.25,12.32l.11.06A2,2,0,0,1,24.33,14.12Z"/><path d="M48.83,25a4,4,0,0,0-1.34-.7l-.2-.05a3.09,3.09,0,0,0,.6-.31A3.15,3.15,0,0,0,49,22.7,3.84,3.84,0,0,0,49.39,21a3.52,3.52,0,0,0-1-2.65,3.83,3.83,0,0,0-2.76-1H40.07a.59.59,0,0,0-.45.19.62.62,0,0,0-.18.44V31.47a.64.64,0,0,0,.18.44.59.59,0,0,0,.45.19h5.64a6.32,6.32,0,0,0,1.65-.22,4.06,4.06,0,0,0,1.42-.72,3.34,3.34,0,0,0,1-1.28A4.32,4.32,0,0,0,50.14,28a4,4,0,0,0-.35-1.75A3.68,3.68,0,0,0,48.83,25Zm-1.47-5.72a2.37,2.37,0,0,1,.68,1.8,2.72,2.72,0,0,1-.74,2.06,2.67,2.67,0,0,1-1.84.71H40.78V18.66h4.66A2.63,2.63,0,0,1,47.36,19.32Zm.54,10.86a3.71,3.71,0,0,1-2.27.68H40.78V25.17h4.83a4.74,4.74,0,0,1,1.57.26,2.44,2.44,0,0,1,1.18.89A2.91,2.91,0,0,1,48.8,28,2.56,2.56,0,0,1,47.9,30.18Z"/><path d="M61.5,21.37a.62.62,0,0,0-.48.19.67.67,0,0,0-.17.46v1.3a4.14,4.14,0,0,0-.8-1A4.47,4.47,0,0,0,57,21.12a4.55,4.55,0,0,0-2.49.71,5.09,5.09,0,0,0-1.77,2,6.25,6.25,0,0,0-.65,2.89,6.48,6.48,0,0,0,.64,2.88,5.09,5.09,0,0,0,1.77,2,4.5,4.5,0,0,0,2.53.74A4.13,4.13,0,0,0,58.67,32,4.91,4.91,0,0,0,60,31.14a4.32,4.32,0,0,0,.84-1v1.37a.67.67,0,0,0,.17.44.65.65,0,0,0,1.11-.44V22a.63.63,0,0,0-.18-.46A.58.58,0,0,0,61.5,21.37Zm-2.4,9.18a3.41,3.41,0,0,1-2,.58,3.46,3.46,0,0,1-2-.58A3.86,3.86,0,0,1,53.79,29a5.29,5.29,0,0,1-.48-2.28,5.15,5.15,0,0,1,.49-2.27,3.87,3.87,0,0,1,1.37-1.54,3.56,3.56,0,0,1,2-.56,3.48,3.48,0,0,1,2,.58,4,4,0,0,1,1.36,1.58A4.88,4.88,0,0,1,61,26.68,5.15,5.15,0,0,1,60.46,29,3.86,3.86,0,0,1,59.1,30.55Z"/><path d="M66.18,16.56a.61.61,0,0,0-.44.19.61.61,0,0,0-.19.44V31.47a.64.64,0,0,0,.18.44.6.6,0,0,0,.45.19.63.63,0,0,0,.44-.19.65.65,0,0,0,.19-.44V17.19a.64.64,0,0,0-.18-.44A.62.62,0,0,0,66.18,16.56Z"/><path d="M78,29.7a.69.69,0,0,0-.53.21,2.64,2.64,0,0,1-.58.42,3.93,3.93,0,0,1-.73.3,4.58,4.58,0,0,1-1.16.12,3.66,3.66,0,0,1-2-.54,3.9,3.9,0,0,1-1.35-1.47,4.51,4.51,0,0,1-.48-2.1,4.4,4.4,0,0,1,.5-2.1A3.66,3.66,0,0,1,73,23.07a3.79,3.79,0,0,1,2-.55,5.23,5.23,0,0,1,1,.1,3.16,3.16,0,0,1,.74.22,2.28,2.28,0,0,1,.43.3,1.75,1.75,0,0,0,.33.28.93.93,0,0,0,.47.11.59.59,0,0,0,.52-.25.93.93,0,0,0,.18-.55,1.15,1.15,0,0,0-.51-.9,3.91,3.91,0,0,0-1.36-.63A7.68,7.68,0,0,0,74.87,21a5.22,5.22,0,0,0-2.84.76,5.3,5.3,0,0,0-1.9,2,6.12,6.12,0,0,0-.68,2.88,6.23,6.23,0,0,0,.66,2.88,5,5,0,0,0,1.86,2,5.15,5.15,0,0,0,2.79.75,6.68,6.68,0,0,0,2-.29,4.41,4.41,0,0,0,1.41-.7,1.13,1.13,0,0,0,.53-.82.87.87,0,0,0-.19-.57A.7.7,0,0,0,78,29.7Z"/><path d="M88.48,21.71a5.57,5.57,0,0,0-5.55,0,5.43,5.43,0,0,0-2,2,6.28,6.28,0,0,0,0,5.84,5.43,5.43,0,0,0,2,2,5.39,5.39,0,0,0,7.49-2,6.36,6.36,0,0,0,0-5.84A5.35,5.35,0,0,0,88.48,21.71ZM89,28.76a3.93,3.93,0,0,1-1.34,1.46,3.72,3.72,0,0,1-3.83,0,3.82,3.82,0,0,1-1.36-1.46,4.85,4.85,0,0,1,0-4.25,3.79,3.79,0,0,1,1.36-1.45,3.67,3.67,0,0,1,3.83,0A3.9,3.9,0,0,1,89,24.51a4.85,4.85,0,0,1,0,4.25Z"/><path d="M101.21,21.56A3.83,3.83,0,0,0,99,21a4.22,4.22,0,0,0-1.45.26,4.66,4.66,0,0,0-1.25.71,4.23,4.23,0,0,0-1,1l-.06.1V22.1a.85.85,0,0,0-.23-.61.86.86,0,0,0-1.21,0,.82.82,0,0,0-.24.61v9.14a.83.83,0,0,0,.24.6.82.82,0,0,0,1.2,0,.83.83,0,0,0,.24-.6V25.4A2.5,2.5,0,0,1,95.69,24a3.19,3.19,0,0,1,1.17-1,3.4,3.4,0,0,1,1.62-.39,2.62,2.62,0,0,1,1.51.39,2.14,2.14,0,0,1,.81,1A4.2,4.2,0,0,1,101,25.4v5.84a.86.86,0,0,0,.23.6.83.83,0,0,0,1.21,0,.83.83,0,0,0,.24-.6V25.36a6.73,6.73,0,0,0-.35-2.23A3.22,3.22,0,0,0,101.21,21.56Z"/><path d="M113.47,21.56a3.83,3.83,0,0,0-2.25-.59,4.18,4.18,0,0,0-1.45.26,4.87,4.87,0,0,0-1.26.71,4.4,4.4,0,0,0-.94,1l-.06.1V22.1a.82.82,0,0,0-.24-.61.76.76,0,0,0-.6-.25.79.79,0,0,0-.6.25.82.82,0,0,0-.24.61v9.14a.83.83,0,0,0,.24.6.81.81,0,0,0,1.19,0,.84.84,0,0,0,.25-.6V25.4A2.5,2.5,0,0,1,108,24a3.19,3.19,0,0,1,1.17-1,3.4,3.4,0,0,1,1.62-.39,2.62,2.62,0,0,1,1.51.39,2.14,2.14,0,0,1,.81,1,4.2,4.2,0,0,1,.24,1.45v5.84a.86.86,0,0,0,.23.6.79.79,0,0,0,.61.26.79.79,0,0,0,.6-.26.83.83,0,0,0,.24-.6V25.36a6.73,6.73,0,0,0-.35-2.23A3.22,3.22,0,0,0,113.47,21.56Z"/><path d="M125.94,22.38a4.79,4.79,0,0,0-1.59-1.05,5,5,0,0,0-1.88-.36,4.86,4.86,0,0,0-2.47.68,5.2,5.2,0,0,0-1.88,2,6.19,6.19,0,0,0-.73,3.11,5.89,5.89,0,0,0,.7,2.89,5.08,5.08,0,0,0,2,2,5.82,5.82,0,0,0,2.94.72,4.93,4.93,0,0,0,2.14-.49,5.06,5.06,0,0,0,1.59-1.13.84.84,0,0,0,.36-.65.67.67,0,0,0-.21-.5.72.72,0,0,0-.53-.21,1,1,0,0,0-.52.18,4.37,4.37,0,0,1-.67.58,3.59,3.59,0,0,1-.94.47,3.74,3.74,0,0,1-1.29.19,3.86,3.86,0,0,1-2-.53,3.8,3.8,0,0,1-1.38-1.46,4.5,4.5,0,0,1-.48-1.83h7.61a.87.87,0,0,0,.59-.22.81.81,0,0,0,.27-.55,5.6,5.6,0,0,0-.44-2.15A5.35,5.35,0,0,0,125.94,22.38Zm-5.83,1.11a3.14,3.14,0,0,1,1.11-.71,3.42,3.42,0,0,1,3.93,1.06,2.66,2.66,0,0,1,.57,1.48v.16h-6.6a4.84,4.84,0,0,1,.2-.73A3.44,3.44,0,0,1,120.11,23.49Z"/><path d="M137.75,29.7a.69.69,0,0,0-.53.21,2.64,2.64,0,0,1-.58.42,3.77,3.77,0,0,1-.74.3,4.45,4.45,0,0,1-1.15.12,3.64,3.64,0,0,1-2-.54,3.82,3.82,0,0,1-1.35-1.47,4.51,4.51,0,0,1-.48-2.1,4.4,4.4,0,0,1,.49-2.1,3.78,3.78,0,0,1,3.39-2,5.32,5.32,0,0,1,1,.1,3.06,3.06,0,0,1,.73.22,2,2,0,0,1,.43.3,2.2,2.2,0,0,0,.34.28.93.93,0,0,0,.47.11.6.6,0,0,0,.52-.25,1,1,0,0,0,.17-.55,1.14,1.14,0,0,0-.5-.9,4,4,0,0,0-1.36-.63,7.7,7.7,0,0,0-1.94-.23,5.21,5.21,0,0,0-2.83.76,5.3,5.3,0,0,0-1.9,2,6.12,6.12,0,0,0-.68,2.88,6.23,6.23,0,0,0,.66,2.88,5,5,0,0,0,1.86,2,5.15,5.15,0,0,0,2.79.75,6.68,6.68,0,0,0,2-.29,4.41,4.41,0,0,0,1.41-.7,1.13,1.13,0,0,0,.53-.82.93.93,0,0,0-.19-.57A.72.72,0,0,0,137.75,29.7Z"/><path d="M145.22,22.86a.75.75,0,0,0,.56-.22.73.73,0,0,0,.22-.54.76.76,0,0,0-.22-.56.72.72,0,0,0-.56-.23h-1.91v-2a.86.86,0,0,0-.23-.61.78.78,0,0,0-.59-.25.84.84,0,0,0-.6.25.85.85,0,0,0-.26.61v2h-1.34a.81.81,0,0,0-.56.22.71.71,0,0,0-.24.55.74.74,0,0,0,.24.55.82.82,0,0,0,.56.23h1.34v6.65a3.19,3.19,0,0,0,.29,1.5,1.77,1.77,0,0,0,.7.77,2,2,0,0,0,.85.27c.29,0,.53.05.72.05a1.84,1.84,0,0,0,1-.27.73.73,0,0,0,.26-1.15.52.52,0,0,0-.38-.2.84.84,0,0,0-.37.07.87.87,0,0,1-.37.08,1.17,1.17,0,0,1-.47-.1.8.8,0,0,1-.39-.34,1.52,1.52,0,0,1-.15-.76V22.86Z"/><path d="M112.57,37.51a.18.18,0,0,0-.16.09l-2,2.69-2-2.69a.18.18,0,0,0-.16-.09.21.21,0,0,0-.12.05.16.16,0,0,0-.07.13s0,0,0,.06l0,.06,2.09,2.86v3.09a.18.18,0,0,0,0,.12.17.17,0,0,0,.14.06.18.18,0,0,0,.14-.06.18.18,0,0,0,0-.12V40.63l2.08-2.82s0,0,0-.06a.13.13,0,0,0,0-.06.21.21,0,0,0,0-.11A.14.14,0,0,0,112.57,37.51Z"/><path d="M116.94,41.51a.18.18,0,0,0,.13-.06.21.21,0,0,0,.05-.13,2.56,2.56,0,0,0-.19-.93,2.09,2.09,0,0,0-.47-.65,1.86,1.86,0,0,0-.65-.38,2.4,2.4,0,0,0-.75-.12,1.82,1.82,0,0,0-1,.29,2.18,2.18,0,0,0-.77.82,2.79,2.79,0,0,0-.29,1.31,2.49,2.49,0,0,0,.3,1.25,2.11,2.11,0,0,0,.82.83,2.52,2.52,0,0,0,1.21.29,1.83,1.83,0,0,0,1-.27,2.87,2.87,0,0,0,.73-.64.21.21,0,0,0,0-.11.18.18,0,0,0,0-.12.16.16,0,0,0-.11,0,.19.19,0,0,0-.15.09,2.08,2.08,0,0,1-.36.37,1.83,1.83,0,0,1-.49.28,1.66,1.66,0,0,1-.59.1,2,2,0,0,1-1.09-.28,1.84,1.84,0,0,1-.66-.75,2.31,2.31,0,0,1-.23-1s0-.08,0-.12Zm-3-1.41a1.62,1.62,0,0,1,.55-.37,1.46,1.46,0,0,1,.58-.13,1.87,1.87,0,0,1,.76.17,1.66,1.66,0,0,1,.62.5,1.46,1.46,0,0,1,.31.81v.08h-3.36a3,3,0,0,1,.12-.43A2,2,0,0,1,113.93,40.1Z"/><path d="M121.33,39.47a1.7,1.7,0,0,0-.94-.23,1.82,1.82,0,0,0-.68.13,2.22,2.22,0,0,0-.63.37,2.07,2.07,0,0,0-.4.44v-.61a.17.17,0,0,0-.05-.13.16.16,0,0,0-.13-.06.18.18,0,0,0-.13.06.21.21,0,0,0-.05.13v4.19a.15.15,0,0,0,.05.12.16.16,0,0,0,.13.06.18.18,0,0,0,.13-.06.18.18,0,0,0,.05-.12V41a1.16,1.16,0,0,1,.25-.71,1.69,1.69,0,0,1,.64-.51,1.71,1.71,0,0,1,.78-.2,1.36,1.36,0,0,1,.76.2,1.06,1.06,0,0,1,.42.51,2,2,0,0,1,.13.71v2.76a.15.15,0,0,0,0,.12.16.16,0,0,0,.13.06.18.18,0,0,0,.13-.06.18.18,0,0,0,0-.12V41a2,2,0,0,0-.17-.87A1.31,1.31,0,0,0,121.33,39.47Z"/><path d="M123.72,39.24a.17.17,0,0,0-.18.18v4.34a.15.15,0,0,0,0,.12.16.16,0,0,0,.13.06.18.18,0,0,0,.13-.06.15.15,0,0,0,.05-.12V39.42a.17.17,0,0,0-.05-.13A.17.17,0,0,0,123.72,39.24Z"/><path d="M123.73,38a.36.36,0,0,0-.24.08.29.29,0,0,0-.09.21v.08a.29.29,0,0,0,.09.21.34.34,0,0,0,.23.08.31.31,0,0,0,.22-.08.29.29,0,0,0,.09-.21v-.08a.29.29,0,0,0-.3-.29Z"/><path d="M132.19,37.85a.15.15,0,0,0,.06-.13.14.14,0,0,0-.06-.12.21.21,0,0,0-.13-.05h-4.43a.21.21,0,0,0-.13.05.14.14,0,0,0-.06.12.18.18,0,0,0,.06.13.21.21,0,0,0,.13,0h2v5.86a.18.18,0,0,0,.05.12.18.18,0,0,0,.14.06.21.21,0,0,0,.18-.18V37.9h2A.21.21,0,0,0,132.19,37.85Z"/><path d="M136.14,39.38a.16.16,0,0,0-.13.06.21.21,0,0,0,0,.13v.8a1.84,1.84,0,0,0-.41-.59,1.75,1.75,0,0,0-.6-.4,2,2,0,0,0-.74-.14,2,2,0,0,0-1.08.3,2.2,2.2,0,0,0-.76.84,2.59,2.59,0,0,0-.28,1.23,2.71,2.71,0,0,0,.27,1.23,2.23,2.23,0,0,0,.76.87,1.94,1.94,0,0,0,1.09.32,1.91,1.91,0,0,0,1.35-.55,1.81,1.81,0,0,0,.4-.55v.83a.18.18,0,0,0,0,.12.16.16,0,0,0,.13.06.18.18,0,0,0,.13-.06.16.16,0,0,0,.06-.12V39.57a.21.21,0,0,0-.05-.13A.18.18,0,0,0,136.14,39.38Zm-.37,3.29a1.76,1.76,0,0,1-.63.74,1.6,1.6,0,0,1-.91.27,1.63,1.63,0,0,1-.92-.27,1.92,1.92,0,0,1-.63-.74,2.39,2.39,0,0,1-.22-1.06,2.25,2.25,0,0,1,.23-1,1.83,1.83,0,0,1,.63-.72,1.67,1.67,0,0,1,.91-.26,1.6,1.6,0,0,1,.91.27,1.86,1.86,0,0,1,.63.73,2.33,2.33,0,0,1,.23,1A2.39,2.39,0,0,1,135.77,42.67Z"/><path d="M140.18,39.27l-.28,0a1.57,1.57,0,0,0-.79.19,2.21,2.21,0,0,0-.58.52,2.25,2.25,0,0,0-.32.59v-1a.21.21,0,0,0-.05-.13.18.18,0,0,0-.14-.06.14.14,0,0,0-.12.06.18.18,0,0,0-.06.13v4.19a.18.18,0,0,0,0,.12.16.16,0,0,0,.13.06.18.18,0,0,0,.13-.06.16.16,0,0,0,.06-.12V41.47a1.71,1.71,0,0,1,.13-.65,2.48,2.48,0,0,1,.37-.63,2.23,2.23,0,0,1,.52-.46,1.14,1.14,0,0,1,.57-.17.5.5,0,0,1,.23,0,.24.24,0,0,0,.13,0,.14.14,0,0,0,.12-.06.18.18,0,0,0,0-.13A.18.18,0,0,0,140.18,39.27Z"/><path d="M144.16,39.24h-2.8a.13.13,0,0,0-.12,0,.14.14,0,0,0-.06.12.17.17,0,0,0,.06.12.13.13,0,0,0,.12,0h2.47l-2.89,4.06,0,0a.15.15,0,0,0,0,.07.17.17,0,0,0,0,.11.15.15,0,0,0,.14.07h3a.19.19,0,0,0,.13,0,.17.17,0,0,0,.06-.12.14.14,0,0,0-.06-.12.16.16,0,0,0-.13-.06H141.4l2.89-4a.09.09,0,0,0,0-.06.19.19,0,0,0,0-.07.31.31,0,0,0-.06-.13A.18.18,0,0,0,144.16,39.24Z"/><path d="M145.52,42.23a.12.12,0,0,0,.13-.14l0-4.26a.56.56,0,0,0,0-.2.18.18,0,0,0-.3,0,.4.4,0,0,0,0,.2l0,4.26C145.39,42.18,145.43,42.23,145.52,42.23Z"/><path d="M145.72,43.24a.23.23,0,0,0-.19-.08h0a.22.22,0,0,0-.18.08.28.28,0,0,0-.07.21v.21a.31.31,0,0,0,.07.2.22.22,0,0,0,.18.08h0a.23.23,0,0,0,.19-.08.36.36,0,0,0,.06-.2v-.21A.33.33,0,0,0,145.72,43.24Z"/></g></g></svg>